<svg xmlns="http://www.w3.org/2000/svg" xmlns:xlink="http://www.w3.org/1999/xlink" width="1024" zoomAndPan="magnify" viewBox="0 0 768 767.999994" height="1024" preserveAspectRatio="xMidYMid meet" version="1.0"><defs><g/><clipPath id="d493dab2ad"><path d="M 54.097656 382 L 56 382 L 56 386 L 54.097656 386 Z M 54.097656 382 " clip-rule="nonzero"/></clipPath><clipPath id="a6f41d25d1"><path d="M 59 52 L 714.097656 52 L 714.097656 716 L 59 716 Z M 59 52 " clip-rule="nonzero"/></clipPath><clipPath id="75ed94bec1"><path d="M 280.746094 208 L 486.996094 208 L 486.996094 384 L 280.746094 384 Z M 280.746094 208 " clip-rule="nonzero"/></clipPath></defs><rect x="-76.8" width="921.6" fill="#ffffff" y="-76.799999" height="921.599993" fill-opacity="1"/><rect x="-76.8" width="921.6" fill="#ffffff" y="-76.799999" height="921.599993" fill-opacity="1"/><rect x="-76.8" width="921.6" fill="#daebed" y="-76.799999" height="921.599993" fill-opacity="1"/><g clip-path="url(#d493dab2ad)"><path fill="#231f20" d="M 55.886719 384.589844 C 55.886719 381.519531 54.398438 382.625 54.097656 382.070312 C 54.578125 387.230469 56.289062 384.363281 55.886719 384.589844 Z M 55.886719 384.589844 " fill-opacity="1" fill-rule="nonzero"/></g><path fill="#231f20" d="M 63.636719 434.480469 L 62.828125 433.699219 L 65.699219 440.722656 Z M 63.636719 434.480469 " fill-opacity="1" fill-rule="nonzero"/><path fill="#231f20" d="M 74.328125 480.242188 C 75.710938 475.210938 69.019531 464.082031 68.289062 455.601562 L 68.566406 454.113281 L 65.597656 450.894531 C 66.957031 455.925781 68.542969 461.464844 70.328125 466.652344 C 71.960938 471.09375 73.296875 475.625 74.328125 480.242188 Z M 74.328125 480.242188 " fill-opacity="1" fill-rule="nonzero"/><path fill="#231f20" d="M 77.375 505.894531 C 77.777344 504.03125 80.242188 510.675781 75.511719 500.253906 C 75.511719 500.835938 75.511719 501.011719 75.664062 501.363281 C 76.039062 502.292969 76.566406 503.628906 77.375 505.894531 Z M 77.375 505.894531 " fill-opacity="1" fill-rule="nonzero"/><path fill="#231f20" d="M 75.636719 501.335938 C 73.726562 496.679688 76.015625 504.710938 75.636719 501.335938 Z M 75.636719 501.335938 " fill-opacity="1" fill-rule="nonzero"/><path fill="#231f20" d="M 85.300781 522.507812 L 81.726562 516.84375 C 81.726562 518.355469 84.042969 523.816406 82.734375 521.878906 C 85.953125 528.070312 85.929688 526.433594 85.300781 522.507812 Z M 85.300781 522.507812 " fill-opacity="1" fill-rule="nonzero"/><path fill="#231f20" d="M 89.675781 527.316406 C 89.023438 526.359375 88.394531 525.402344 87.839844 524.421875 C 87.816406 525.074219 88.117188 525.957031 89.675781 527.316406 Z M 89.675781 527.316406 " fill-opacity="1" fill-rule="nonzero"/><path fill="#231f20" d="M 84.089844 518.152344 L 87.816406 524.421875 C 87.816406 523.363281 88.570312 522.910156 86.179688 521.527344 C 87.160156 521.726562 85.878906 520.746094 84.089844 518.152344 Z M 84.089844 518.152344 " fill-opacity="1" fill-rule="nonzero"/><path fill="#231f20" d="M 82.78125 514.25 C 81.75 510.652344 80.394531 506.09375 83.765625 511.734375 C 81.25 506.019531 79.738281 503.703125 79.460938 504.308594 C 79.421875 505.355469 79.605469 506.363281 80.015625 507.328125 C 80.738281 509.714844 81.664062 512.023438 82.78125 514.25 Z M 82.78125 514.25 " fill-opacity="1" fill-rule="nonzero"/><path fill="#231f20" d="M 77.75 481.578125 C 77.472656 479.964844 77.195312 478.355469 77.046875 476.71875 L 75.035156 472.945312 C 75.660156 474.644531 76.125 476.390625 76.417969 478.179688 C 76.871094 480.242188 77.398438 481.855469 77.75 481.578125 Z M 77.75 481.578125 " fill-opacity="1" fill-rule="nonzero"/><path fill="#231f20" d="M 103.742188 559.433594 C 104.449219 559.433594 103.742188 556.742188 104.195312 555.960938 C 103.113281 554.726562 102.132812 553.445312 101.125 552.109375 C 101.957031 554.527344 104.273438 558.707031 103.742188 559.433594 Z M 103.742188 559.433594 " fill-opacity="1" fill-rule="nonzero"/><path fill="#231f20" d="M 104.195312 555.960938 L 108.953125 561.574219 C 105.429688 556.039062 104.496094 555.28125 104.195312 555.960938 Z M 104.195312 555.960938 " fill-opacity="1" fill-rule="nonzero"/><path fill="#231f20" d="M 92.847656 527.039062 C 90.332031 523.867188 88.269531 520.46875 85.953125 517.171875 C 88.46875 521.199219 90.984375 525.226562 93.90625 529.050781 Z M 92.847656 527.039062 " fill-opacity="1" fill-rule="nonzero"/><path fill="#231f20" d="M 119.496094 582.644531 C 118.3125 581.8125 117.15625 580.90625 115.996094 580.128906 L 118.964844 582.644531 L 122.0625 584.960938 Z M 119.496094 582.644531 " fill-opacity="1" fill-rule="nonzero"/><path fill="#231f20" d="M 131.269531 597.019531 C 128.402344 595.382812 132.628906 601.421875 129.960938 599.382812 C 133.078125 602.640625 136.492188 605.542969 140.203125 608.09375 C 136.671875 604.851562 133.691406 601.15625 131.269531 597.019531 Z M 131.269531 597.019531 " fill-opacity="1" fill-rule="nonzero"/><path fill="#231f20" d="M 145.6875 611.96875 C 144.078125 610.660156 142.265625 609.453125 140.277344 608.09375 C 141.976562 609.535156 143.777344 610.828125 145.6875 611.96875 Z M 145.6875 611.96875 " fill-opacity="1" fill-rule="nonzero"/><path fill="#231f20" d="M 115.492188 571.996094 C 115.605469 574.070312 116.265625 575.949219 117.480469 577.636719 L 117.128906 574.363281 Z M 115.492188 571.996094 " fill-opacity="1" fill-rule="nonzero"/><path fill="#231f20" d="M 117.253906 574.238281 L 120.777344 579.269531 Z M 117.253906 574.238281 " fill-opacity="1" fill-rule="nonzero"/><path fill="#231f20" d="M 115.21875 571.417969 L 115.621094 572.023438 C 115.492188 571.695312 115.492188 571.519531 115.21875 571.417969 Z M 115.21875 571.417969 " fill-opacity="1" fill-rule="nonzero"/><path fill="#231f20" d="M 100.398438 544.433594 C 103.316406 547.679688 108.523438 554.804688 105.429688 546.722656 C 103.089844 544.660156 104.851562 549.289062 100.398438 544.433594 Z M 100.398438 544.433594 " fill-opacity="1" fill-rule="nonzero"/><path fill="#231f20" d="M 114.8125 567.363281 C 113.429688 565.199219 112.296875 562.933594 110.914062 560.71875 C 110.636719 561.070312 110.914062 562.582031 109.355469 561.046875 C 111.191406 563.1875 112.976562 565.324219 114.8125 567.363281 Z M 114.8125 567.363281 " fill-opacity="1" fill-rule="nonzero"/><path fill="#231f20" d="M 117.40625 570.160156 L 114.8125 567.363281 L 116.347656 569.78125 Z M 117.40625 570.160156 " fill-opacity="1" fill-rule="nonzero"/><path fill="#231f20" d="M 137.738281 601.070312 C 139.140625 602.160156 140.457031 603.339844 141.6875 604.621094 L 145.863281 608.722656 C 142.996094 605.375 140.128906 601.800781 137.308594 598.503906 C 136.527344 598.554688 134.589844 597.597656 137.738281 601.070312 Z M 137.738281 601.070312 " fill-opacity="1" fill-rule="nonzero"/><path fill="#231f20" d="M 127.546875 588.234375 L 128.074219 588.761719 C 127.898438 588.332031 127.699219 588.007812 127.546875 588.234375 Z M 127.546875 588.234375 " fill-opacity="1" fill-rule="nonzero"/><path fill="#231f20" d="M 175.328125 636.664062 L 175.027344 636.007812 L 174.726562 636.007812 Z M 175.328125 636.664062 " fill-opacity="1" fill-rule="nonzero"/><path fill="#231f20" d="M 137.058594 597.824219 C 135.703125 595.820312 134.027344 594.140625 132.023438 592.789062 C 133.761719 594.550781 135.574219 596.488281 137.433594 598.605469 C 137.660156 598.554688 137.8125 598.554688 137.058594 597.824219 Z M 137.058594 597.824219 " fill-opacity="1" fill-rule="nonzero"/><path fill="#231f20" d="M 154.09375 619.597656 L 150.644531 614.890625 C 151.398438 616.5 153.238281 619.472656 154.09375 619.597656 Z M 154.09375 619.597656 " fill-opacity="1" fill-rule="nonzero"/><path fill="#231f20" d="M 128.425781 589.917969 L 128.074219 589.566406 C 128.453125 590.648438 128.503906 590.449219 128.425781 589.917969 Z M 128.425781 589.917969 " fill-opacity="1" fill-rule="nonzero"/><path fill="#231f20" d="M 128.425781 589.917969 C 129.527344 590.949219 130.691406 591.894531 131.925781 592.761719 C 130.566406 591.253906 129.410156 589.894531 128.101562 588.761719 C 128.25 589.136719 128.359375 589.523438 128.425781 589.917969 Z M 128.425781 589.917969 " fill-opacity="1" fill-rule="nonzero"/><path fill="#231f20" d="M 191.28125 636.136719 C 190.601562 636.5625 188.386719 635.734375 185.722656 634.046875 C 184.253906 633.128906 182.867188 632.09375 181.570312 630.949219 C 180.191406 629.667969 178.933594 628.273438 177.796875 626.769531 C 171.605469 622.894531 171.882812 629.640625 175.027344 636.007812 C 175.65625 635.632812 175.933594 635.304688 182.574219 639.28125 C 180.863281 637.140625 170.976562 627.046875 176.636719 630.167969 C 178.976562 631.746094 181.113281 633.558594 183.054688 635.605469 C 183.910156 636.9375 184.847656 638.203125 185.871094 639.40625 C 184.839844 637.394531 187.734375 638.828125 190.90625 640.289062 C 194.074219 641.75 197.546875 643.082031 197.472656 641.394531 C 194.957031 640.035156 192.4375 638.476562 189.921875 636.964844 C 190.050781 636.511719 192.917969 637.921875 191.28125 636.136719 Z M 191.28125 636.136719 " fill-opacity="1" fill-rule="nonzero"/><path fill="#231f20" d="M 164.183594 626.242188 L 161.667969 624.203125 C 164.085938 627 166.332031 629.929688 168.410156 632.988281 C 172.863281 635.882812 174.019531 636.160156 174.625 636.007812 C 170.800781 632.5625 166.847656 629.214844 163.152344 625.664062 Z M 164.183594 626.242188 " fill-opacity="1" fill-rule="nonzero"/><path fill="#231f20" d="M 151.652344 614.511719 C 154.445312 615.21875 160.433594 619.773438 158.320312 615.394531 C 151.753906 609.101562 152.910156 611.792969 148.582031 608.371094 C 159.074219 618.792969 144.984375 605.851562 151.726562 614.3125 C 149.511719 612.398438 147.652344 610.535156 145.890625 608.796875 C 147.601562 610.863281 149.210938 612.902344 150.671875 614.890625 L 150.492188 614.5625 C 150.191406 613.957031 150.140625 613.707031 150.492188 614.3125 L 150.71875 614.511719 C 151.023438 614.429688 151.324219 614.429688 151.625 614.511719 C 154.367188 617.859375 151.800781 615.292969 150.71875 614.511719 C 150.71875 614.511719 150.492188 614.511719 150.417969 614.511719 C 154.015625 617.9375 157.96875 621.007812 161.714844 624.253906 C 159.679688 621.9375 156.710938 619.371094 151.652344 614.511719 Z M 151.652344 614.511719 " fill-opacity="1" fill-rule="nonzero"/><path fill="#231f20" d="M 112.523438 551.605469 C 112.523438 552.058594 112.523438 552.109375 112.523438 552.1875 C 113.128906 552.890625 113.457031 553.117188 112.523438 551.605469 Z M 112.523438 551.605469 " fill-opacity="1" fill-rule="nonzero"/><path fill="#231f20" d="M 114.941406 557.171875 C 113.472656 556.039062 112.308594 554.65625 111.441406 553.015625 C 110.234375 550.246094 112.121094 552.613281 112.472656 552.210938 C 110.964844 550.726562 107.644531 546.648438 110.410156 552.613281 L 111.164062 553.367188 C 113.859375 558.605469 116.199219 566.132812 115.542969 565.402344 C 115.890625 562.617188 115.691406 559.875 114.941406 557.171875 Z M 114.941406 557.171875 " fill-opacity="1" fill-rule="nonzero"/><path fill="#231f20" d="M 132.300781 586.722656 C 134.96875 589.820312 137.914062 592.6875 140.757812 595.582031 L 137.761719 589.96875 L 137.308594 590.75 C 133.105469 585.210938 133.359375 586.972656 132.300781 586.722656 Z M 132.300781 586.722656 " fill-opacity="1" fill-rule="nonzero"/><path fill="#231f20" d="M 175.882812 638.226562 L 173.542969 638.476562 C 175.859375 639.484375 178.324219 640.238281 180.664062 640.992188 Z M 175.882812 638.226562 " fill-opacity="1" fill-rule="nonzero"/><path fill="#231f20" d="M 188.714844 648.042969 L 187.355469 648.871094 C 188.664062 649.5 190.023438 650.054688 191.355469 650.660156 Z M 188.714844 648.042969 " fill-opacity="1" fill-rule="nonzero"/><path fill="#231f20" d="M 656.78125 222.402344 L 654.691406 219.636719 C 655.339844 220.59375 656.035156 221.515625 656.78125 222.402344 Z M 656.78125 222.402344 " fill-opacity="1" fill-rule="nonzero"/><path fill="#231f20" d="M 668.582031 244.40625 L 669.511719 244.628906 C 668.628906 243.773438 668.152344 243.5 668.582031 244.40625 Z M 668.582031 244.40625 " fill-opacity="1" fill-rule="nonzero"/><path fill="#231f20" d="M 561.71875 664.203125 C 566.925781 662.515625 573.164062 661.082031 571.78125 660.023438 L 569.492188 659.546875 C 567.082031 661.398438 564.488281 662.953125 561.71875 664.203125 Z M 561.71875 664.203125 " fill-opacity="1" fill-rule="nonzero"/><path fill="#231f20" d="M 702.824219 445.429688 L 702.070312 446.816406 L 702.824219 450.539062 C 702.824219 448.980469 702.925781 447.269531 702.824219 445.429688 Z M 702.824219 445.429688 " fill-opacity="1" fill-rule="nonzero"/><path fill="#231f20" d="M 696.738281 440.570312 L 698.949219 434.179688 C 698.082031 436.265625 697.34375 438.394531 696.738281 440.570312 Z M 696.738281 440.570312 " fill-opacity="1" fill-rule="nonzero"/><path fill="#231f20" d="M 563.378906 125.039062 C 561.96875 124.710938 560.585938 124.40625 559.152344 124.15625 C 564.308594 127.628906 562.496094 125.441406 563.378906 125.039062 Z M 563.378906 125.039062 " fill-opacity="1" fill-rule="nonzero"/><path fill="#231f20" d="M 340.089844 709.992188 C 343.789062 711.050781 347.539062 711.890625 351.335938 712.507812 C 345.925781 710.796875 341.726562 708.832031 340.089844 709.992188 Z M 340.089844 709.992188 " fill-opacity="1" fill-rule="nonzero"/><path fill="#231f20" d="M 676.910156 222.53125 C 675.550781 220.742188 674.769531 220.011719 674.394531 220.3125 C 675.878906 222.175781 676.78125 223.132812 676.910156 222.53125 Z M 676.910156 222.53125 " fill-opacity="1" fill-rule="nonzero"/><path fill="#231f20" d="M 364.597656 713.515625 C 363.792969 713.289062 363.011719 713.136719 362.082031 712.9375 C 358.460938 713.035156 354.855469 712.859375 351.261719 712.40625 C 355.621094 713.800781 360.066406 714.171875 364.597656 713.515625 Z M 364.597656 713.515625 " fill-opacity="1" fill-rule="nonzero"/><path fill="#231f20" d="M 127.824219 207 C 127.570312 207.25 127.292969 207.601562 127.042969 207.828125 C 126.792969 208.054688 127.472656 207.652344 127.824219 207 Z M 127.824219 207 " fill-opacity="1" fill-rule="nonzero"/><path fill="#231f20" d="M 60.84375 338.144531 C 60.84375 336.660156 61.246094 334.246094 61.496094 331.953125 C 61.121094 334 60.902344 336.066406 60.84375 338.144531 Z M 60.84375 338.144531 " fill-opacity="1" fill-rule="nonzero"/><path fill="#231f20" d="M 243.820312 682.300781 C 240.675781 680.917969 243.242188 682.300781 243.820312 682.300781 Z M 243.820312 682.300781 " fill-opacity="1" fill-rule="nonzero"/><path fill="#231f20" d="M 232.121094 669.035156 C 232.847656 669.210938 233.429688 669.238281 233.703125 669.035156 C 233.175781 669.230469 232.648438 669.230469 232.121094 669.035156 Z M 232.121094 669.035156 " fill-opacity="1" fill-rule="nonzero"/><path fill="#231f20" d="M 398.316406 703.898438 L 398.589844 703.898438 C 397.609375 703.597656 397.785156 703.671875 398.316406 703.898438 Z M 398.316406 703.898438 " fill-opacity="1" fill-rule="nonzero"/><path fill="#231f20" d="M 239.644531 679.304688 C 240.699219 680.0625 241.933594 680.917969 243.34375 681.824219 C 242.738281 681.320312 241.632812 680.566406 239.644531 679.304688 Z M 239.644531 679.304688 " fill-opacity="1" fill-rule="nonzero"/><path fill="#231f20" d="M 239.894531 680.3125 L 237.378906 678.800781 C 236.800781 678.851562 237.050781 679.105469 239.894531 680.3125 Z M 239.894531 680.3125 " fill-opacity="1" fill-rule="nonzero"/><path fill="#231f20" d="M 248.324219 684.140625 C 246.511719 683.359375 244.875 682.527344 243.292969 681.621094 C 243.84375 682 244.070312 682.199219 243.894531 682.175781 Z M 248.324219 684.140625 " fill-opacity="1" fill-rule="nonzero"/><path fill="#231f20" d="M 345.601562 67.417969 L 344.871094 67.417969 C 341.699219 68.5 343.109375 68.222656 345.601562 67.417969 Z M 345.601562 67.417969 " fill-opacity="1" fill-rule="nonzero"/><path fill="#231f20" d="M 617.828125 596.035156 C 617.828125 596.035156 617.828125 596.238281 617.628906 596.363281 L 618.003906 596.0625 Z M 617.828125 596.035156 " fill-opacity="1" fill-rule="nonzero"/><path fill="#231f20" d="M 624.648438 586.621094 C 624.09375 588.53125 623.242188 590.304688 622.101562 591.933594 C 620.960938 593.5625 619.585938 594.964844 617.980469 596.136719 C 620.019531 596.261719 622.105469 596.414062 624.117188 596.488281 Z M 624.648438 586.621094 " fill-opacity="1" fill-rule="nonzero"/><g clip-path="url(#a6f41d25d1)"><path fill="#231f20" d="M 621.25 174.527344 L 625.453125 181.625 C 617.226562 175.785156 613.25 170.019531 616.671875 177.070312 C 617.804688 176.4375 619.691406 177.570312 621.929688 179.585938 C 624.59375 182.054688 627.042969 184.722656 629.277344 187.589844 C 631.792969 190.636719 634.308594 193.683594 636.398438 195.847656 C 638.488281 198.011719 640.222656 199.421875 641.429688 198.894531 L 643.667969 203.925781 C 642.8125 202.644531 642.4375 202.617188 641.582031 201.410156 C 645.632812 211.253906 649.128906 205.664062 655.847656 217.46875 C 657.988281 221.699219 658.894531 225.023438 656.804688 222.503906 L 663.121094 230.960938 C 664.527344 233.679688 663.398438 233.480469 661.960938 230.761719 C 664.679688 235.34375 666.996094 240.101562 669.710938 244.757812 L 669.511719 244.757812 C 671.859375 247.28125 674.03125 249.949219 676.027344 252.761719 C 677.035156 256.789062 674.695312 251.125 674.542969 252.332031 C 676.128906 254.851562 677.789062 257.367188 679.300781 259.886719 C 679.300781 261.824219 678.417969 261.195312 677.1875 259.382812 C 675.535156 257.015625 674.160156 254.5 673.058594 251.828125 C 672.878906 252.601562 672.792969 253.386719 672.796875 254.179688 C 672.804688 254.972656 672.902344 255.753906 673.09375 256.523438 C 673.28125 257.292969 673.558594 258.03125 673.925781 258.734375 C 674.289062 259.4375 674.730469 260.089844 675.25 260.691406 C 678.277344 265.304688 680.214844 270.339844 681.0625 275.792969 C 679.953125 273.277344 678.542969 270.757812 677.460938 268.242188 C 677.269531 271.398438 677.644531 274.488281 678.59375 277.503906 C 679.644531 281.40625 680.484375 285.347656 681.109375 289.335938 C 681.335938 287.046875 679.425781 270.128906 683.628906 278.738281 C 684.375 282.554688 685.734375 286.136719 687.703125 289.488281 C 685.96875 290.066406 687.703125 294.800781 689.617188 300.839844 L 687.097656 301.066406 C 687.867188 303.015625 688.855469 304.847656 690.070312 306.554688 C 691.027344 307.671875 691.867188 308.871094 692.585938 310.152344 C 694.070312 317.707031 692.585938 319.542969 691.351562 321.609375 C 693.089844 333.613281 692.8125 312.773438 695.804688 326.867188 C 696.03125 329.386719 696.335938 331.726562 696.710938 333.992188 C 697.089844 336.257812 697.339844 338.449219 697.792969 340.6875 C 698.648438 345.195312 700.007812 349.875 701.066406 355.917969 C 700.789062 363.089844 699.503906 354.785156 699 357.402344 L 701.515625 363.570312 C 701.515625 365.105469 700.964844 364.652344 700.636719 364.425781 C 701.667969 369.710938 703.152344 364.726562 704.007812 373.136719 C 705.316406 374.242188 704.613281 378.621094 703.605469 383.960938 C 702.195312 389.53125 701.910156 395.164062 702.75 400.851562 C 701.871094 403.367188 701.367188 399.542969 700.386719 400.246094 C 700.839844 407.371094 700.964844 410.464844 701.191406 413.234375 C 701.417969 416.003906 701.542969 418.445312 702.144531 424.460938 C 701.214844 427.707031 700.285156 430.957031 699.128906 434.128906 C 702.222656 427.179688 702.675781 436.644531 702.925781 445.355469 C 704.261719 442.835938 705.441406 440.796875 706.019531 439.363281 C 705.667969 443.84375 705.34375 448.375 704.664062 452.832031 C 703.90625 454.339844 703.40625 452.832031 702.925781 450.464844 C 702.925781 451.394531 702.925781 452.277344 702.925781 452.980469 C 700.988281 457.460938 700.183594 454.695312 699.628906 451.09375 L 702.144531 446.738281 C 701.289062 443.191406 700.234375 439.890625 698.722656 440.320312 C 698.871094 441.78125 698.871094 443.242188 698.722656 444.699219 C 698.472656 443.792969 698.222656 443.191406 697.917969 443.515625 C 697.617188 443.84375 697.917969 445.378906 697.917969 447.59375 L 694.621094 449.9375 L 695.503906 450.867188 L 692.761719 459.023438 C 691.878906 461.742188 690.699219 464.386719 689.691406 467.054688 C 689.515625 470.175781 689.441406 473.246094 689.339844 476.367188 C 689.238281 479.488281 688.859375 482.660156 688.484375 486.082031 C 688.308594 487.796875 688.082031 489.558594 687.804688 491.394531 C 687.527344 493.230469 687.074219 495.070312 686.621094 497.035156 C 685.636719 501.40625 684.371094 505.691406 682.820312 509.894531 C 683.023438 504.636719 680.304688 507.679688 678.269531 506.5 C 680.507812 504.558594 681.5625 500.882812 682.722656 496.628906 L 684.484375 489.882812 C 685.042969 487.457031 685.773438 485.082031 686.671875 482.761719 C 684.734375 487.667969 684.15625 486.183594 684.15625 484.800781 C 683.074219 490.742188 681.386719 496.503906 679.929688 502.421875 C 678.316406 501.3125 677.234375 505.441406 674.519531 509.34375 C 677.035156 508.488281 676.179688 511.859375 674.519531 516.238281 C 674.089844 517.347656 673.636719 518.53125 673.132812 519.738281 L 671.472656 523.289062 C 670.472656 525.355469 669.582031 527.46875 668.808594 529.632812 C 667.472656 529.457031 667.121094 527.289062 671.472656 519.5625 C 664.402344 526.964844 669.789062 533.054688 662.691406 540.328125 C 663.75 538.417969 664.527344 537.484375 664.378906 536.429688 C 663.140625 539.679688 661.539062 542.742188 659.574219 545.617188 C 657.660156 548.433594 655.875 550.121094 656.226562 548.613281 L 657.382812 546.773438 C 655.320312 549.769531 652.828125 553.570312 650.238281 557.671875 C 647.644531 561.777344 644.601562 565.90625 642.058594 569.933594 C 639.519531 573.960938 637.027344 577.484375 635.265625 580.402344 C 633.945312 582.199219 633.15625 584.207031 632.902344 586.421875 C 631.992188 584.855469 631.421875 583.179688 631.191406 581.386719 C 628.445312 590.222656 625.476562 599.285156 621.828125 608.09375 C 621.402344 604.542969 610.65625 606.304688 617.804688 596.539062 C 616.242188 597.8125 614.75 599.164062 613.324219 600.59375 C 611.636719 602.277344 609.800781 604.519531 607.488281 607.3125 C 609.476562 606.003906 614.53125 606.054688 612.394531 608.496094 C 603.789062 612.398438 606.859375 611.691406 597.042969 617.078125 C 600.113281 615.21875 600.039062 620.980469 595.660156 624.632812 C 595.914062 623.574219 592.515625 621.6875 593.773438 620.023438 L 589.898438 626.191406 C 588.589844 628.257812 587.15625 630.167969 585.773438 632.183594 C 588.035156 629.414062 583.984375 629.011719 580.738281 629.96875 C 581.570312 629.96875 579.203125 631.679688 576.3125 633.871094 C 573.417969 636.058594 569.792969 638.300781 568.410156 639.558594 L 573.769531 637.042969 C 569.199219 639.929688 565.453125 643.648438 562.523438 648.191406 C 561.257812 649.960938 559.867188 651.621094 558.34375 653.175781 C 556.140625 655.515625 553.625 657.445312 550.796875 658.964844 C 552.03125 657.253906 552.054688 652.019531 544.960938 655.492188 C 542.988281 659.265625 540.742188 662.867188 538.214844 666.292969 C 534.234375 671.820312 529.359375 676.402344 523.597656 680.035156 L 520.601562 680.035156 C 517.480469 681.949219 514.386719 683.9375 511.140625 685.648438 C 513.65625 683.007812 518.691406 677.894531 523.722656 672.886719 C 526.238281 670.371094 528.753906 667.652344 531.269531 665.335938 C 533.789062 663.019531 535.976562 660.703125 537.863281 658.941406 C 532.226562 660.777344 535.726562 658.414062 528.023438 662.492188 C 524.78125 662.84375 531.445312 658.765625 533.660156 657.457031 C 527.546875 660.300781 521.507812 663.222656 515.242188 665.636719 C 516.175781 666.617188 512.929688 668.785156 509.605469 670.921875 C 506.285156 673.0625 502.761719 674.824219 503.515625 675.679688 C 510.136719 672.308594 516.398438 668.128906 522.714844 664.503906 C 523.671875 665.460938 521.558594 668.40625 517.433594 671.828125 C 515.078125 673.808594 512.5625 675.554688 509.882812 677.066406 C 506.765625 678.773438 503.535156 680.230469 500.195312 681.445312 C 496.398438 681.875 501.175781 676.210938 500.574219 675.53125 C 498.453125 677.03125 496.171875 678.222656 493.730469 679.105469 C 491.507812 680.160156 489.195312 680.933594 486.785156 681.421875 L 492.144531 678.171875 C 488.613281 679.105469 485.324219 680.585938 482.28125 682.601562 C 478.707031 684.667969 474.855469 685.757812 470.730469 685.875 C 467.484375 686.730469 460.3125 685.195312 460.113281 686.757812 C 466.027344 688.367188 469.421875 696.824219 466.277344 699.746094 L 456.210938 700.398438 C 453.804688 700.53125 451.398438 700.53125 448.992188 700.398438 C 447.308594 700.386719 445.628906 700.269531 443.957031 700.046875 C 438.097656 698.789062 451.230469 693.25 446.199219 692.167969 C 446.199219 692.875 443.28125 694.257812 442.070312 694.6875 C 438.5 694.6875 443.128906 692.320312 435.679688 693.957031 C 434.800781 696.699219 420.207031 695.71875 432.410156 696.472656 C 429.832031 697.109375 427.214844 697.453125 424.558594 697.503906 C 422.394531 697.503906 420.082031 697.65625 415.675781 697.984375 C 417.160156 698.714844 415.324219 700.273438 412.128906 701.808594 C 408.460938 703.613281 404.601562 704.804688 400.554688 705.382812 C 400.980469 704.730469 399.222656 703.898438 398.390625 703.546875 C 394.492188 703.546875 391.042969 703.546875 387.847656 703.546875 C 384.652344 703.546875 381.683594 703.09375 378.765625 702.867188 L 369.90625 702.164062 C 366.863281 701.808594 363.640625 701.484375 360.042969 701.207031 C 358.761719 700.5 351.917969 699.167969 355.011719 698.335938 C 352.191406 698.863281 349.355469 698.972656 346.507812 698.664062 C 338.277344 695.367188 356.371094 699.570312 350.179688 696.144531 C 349.476562 697.503906 338.554688 696.953125 332.1875 696.550781 C 332.945312 697.808594 336.542969 698.738281 340.769531 699.066406 C 344.996094 699.394531 349.828125 699.21875 353 699.066406 C 352.847656 700.652344 349.929688 701.9375 345.097656 702.742188 C 342.25 703.214844 339.378906 703.472656 336.492188 703.523438 C 333.246094 703.523438 329.621094 703.371094 325.746094 703.042969 C 319.609375 702.414062 318.476562 701.40625 318.527344 700.902344 C 318.578125 700.398438 319.886719 700.023438 318.804688 700.023438 C 314.589844 698.882812 310.3125 698.105469 305.96875 697.683594 C 303.347656 697.355469 300.714844 697.199219 298.070312 697.203125 C 295.660156 697.214844 293.269531 697.003906 290.898438 696.574219 C 287.320312 695.722656 283.898438 694.457031 280.632812 692.773438 C 274.089844 688.417969 281.640625 688.847656 280.632812 686.933594 C 284.566406 687.957031 288.367188 689.351562 292.03125 691.113281 C 294.996094 692.484375 298.039062 693.652344 301.164062 694.609375 L 293.261719 691.691406 C 297.738281 692.085938 302.066406 693.109375 306.246094 694.761719 C 303.566406 693.410156 300.78125 692.324219 297.894531 691.515625 L 291.300781 689.476562 L 283.753906 686.957031 C 281.234375 686.050781 278.46875 685.171875 275.828125 684.164062 L 268 680.941406 C 263.308594 678.976562 258.777344 676.683594 254.414062 674.070312 C 251.320312 673.414062 246.109375 671.828125 248.074219 673.617188 L 253.257812 675.65625 C 257.257812 679.253906 242.738281 673.390625 248.851562 676.988281 C 244.894531 675.921875 241.003906 674.65625 237.175781 673.1875 C 235.113281 672.410156 232.976562 671.503906 230.8125 670.445312 C 228.59375 669.253906 226.445312 667.945312 224.371094 666.519531 L 223.691406 663.496094 C 223.539062 664.175781 229 668.15625 231.945312 669.011719 C 228.808594 667.445312 225.941406 665.488281 223.339844 663.144531 C 221.738281 661.910156 220.0625 660.796875 218.304688 659.796875 C 216.929688 658.863281 215.410156 658.335938 213.75 658.210938 C 215.5625 659.972656 217.324219 661.835938 219.238281 663.496094 C 215.636719 662.136719 211.6875 660.476562 207.460938 658.640625 C 205.332031 657.71875 203.269531 656.667969 201.269531 655.492188 C 199.316406 654.261719 197.453125 652.902344 195.683594 651.414062 C 197.925781 655.796875 197.597656 652.496094 201.648438 658.589844 C 198.527344 652.671875 222.179688 671.855469 216.042969 663.824219 C 218.066406 666.53125 220.515625 668.769531 223.386719 670.546875 C 226.609375 672.675781 229.65625 675.03125 232.523438 677.621094 C 232.523438 676.8125 230.332031 674.851562 237.304688 678.851562 C 237.929688 678.863281 238.550781 678.929688 239.164062 679.054688 L 239.617188 679.355469 L 239.265625 679.078125 C 239.617188 679.078125 239.667969 679.078125 239.140625 679.078125 C 237.949219 678.285156 236.917969 677.320312 236.046875 676.183594 C 239.527344 676.851562 242.882812 677.917969 246.109375 679.382812 C 250.058594 680.816406 253.984375 682.375 256.175781 682.828125 C 260.328125 685.09375 254.035156 682.828125 256.046875 684.617188 C 258.164062 685.09375 260.300781 685.523438 262.464844 685.875 C 262.464844 687.664062 273.132812 693.125 262.464844 689.929688 L 271.5 693.527344 C 277.15625 696.652344 283.148438 698.902344 289.464844 700.273438 C 293.96875 701.9375 301.566406 701.757812 297.214844 701.910156 C 299.730469 702.4375 302.371094 703.042969 304.964844 703.523438 L 312.789062 704.78125 L 312.789062 705.234375 C 320.65625 706.945312 328.601562 708.179688 336.617188 708.933594 C 345.203125 709.664062 353.691406 711.003906 362.082031 712.960938 C 364.597656 712.960938 367.390625 712.960938 370.484375 712.960938 C 373.582031 712.960938 377.128906 712.960938 381.53125 713.339844 L 383.21875 714.847656 C 386.589844 714.847656 391.671875 714.847656 396.277344 715.074219 C 400.882812 715.300781 405.007812 715.25 406.339844 714.296875 C 409.109375 715.230469 411.953125 715.617188 414.871094 715.453125 C 416.683594 715.453125 418.671875 715.453125 420.734375 715.226562 C 422.796875 715 424.960938 714.722656 427.125 714.394531 C 431.476562 713.691406 436.007812 713.085938 440.132812 712.207031 C 444.261719 711.324219 448.011719 710.59375 451.003906 710.242188 L 451.003906 708.277344 C 455.0625 707.558594 459.066406 706.59375 463.007812 705.382812 L 469.347656 703.496094 C 471.511719 702.765625 473.777344 701.910156 476.140625 700.980469 L 475.085938 699.519531 C 480.121094 697.597656 485.269531 696.050781 490.535156 694.886719 L 499.96875 692.371094 C 503.164062 691.386719 506.410156 690.207031 509.605469 688.921875 C 507.675781 690.269531 505.546875 691.109375 503.214844 691.4375 C 507.460938 690.871094 511.582031 689.804688 515.570312 688.242188 C 519.464844 686.433594 523.253906 684.425781 526.941406 682.226562 C 530.691406 680.1875 534.164062 677.746094 537.710938 675.78125 C 541.125 673.820312 544.675781 672.144531 548.355469 670.746094 C 550.703125 668.792969 553.308594 667.300781 556.179688 666.265625 C 555.914062 666.417969 555.660156 666.597656 555.425781 666.796875 L 556.761719 666.039062 C 558.421875 665.476562 560.046875 664.832031 561.640625 664.101562 C 560.105469 664.582031 558.699219 665.132812 557.464844 665.613281 C 560.734375 663.570312 563.878906 661.355469 566.902344 658.964844 L 569.417969 659.496094 L 570.222656 658.917969 C 574.121094 657.203125 572.585938 656.398438 569.945312 656.398438 C 571.410156 655.171875 572.746094 653.8125 573.945312 652.320312 C 576.160156 652.546875 578.300781 650.734375 580.5625 648.847656 C 581.683594 647.917969 582.863281 647.078125 584.113281 646.332031 C 585.269531 645.519531 586.554688 645.042969 587.960938 644.894531 C 590.519531 641.757812 593.355469 638.898438 596.464844 636.3125 C 600.140625 632.484375 603.585938 628.558594 603.359375 626.621094 C 603.738281 626.847656 604.820312 626.167969 603.109375 627.675781 C 606.960938 625.144531 610.265625 622.03125 613.023438 618.339844 L 616.066406 618.617188 L 618.582031 613.957031 L 621.097656 609.152344 C 626.410156 605.625 628.824219 604.265625 625.804688 610.03125 C 627.917969 606.835938 629.453125 604.644531 630.636719 602.957031 C 631.820312 601.273438 632.625 600.039062 633.453125 598.929688 C 635.769531 595.738281 637.816406 592.382812 639.59375 588.863281 L 640.375 590.296875 C 643.167969 586.671875 646.058594 579.722656 648.726562 578.339844 C 651.859375 575.484375 654.652344 572.332031 657.105469 568.875 C 658.867188 566.683594 660.628906 564.09375 662.414062 561.324219 L 668.152344 552.511719 C 675.703125 539.925781 683.476562 525.25 689.816406 513.648438 C 686.722656 515.082031 688.507812 512.539062 690.546875 509.242188 C 692.585938 505.945312 694.898438 501.917969 693.492188 500.808594 C 695.027344 499.777344 696.914062 496.554688 696.207031 500.808594 C 697.238281 497.585938 698.273438 494.816406 699.128906 492.300781 C 699.984375 489.785156 700.964844 487.570312 701.644531 485.429688 C 703.429688 481.273438 704.269531 476.9375 704.160156 472.414062 C 705.59375 471.207031 704.839844 475.613281 705.796875 474.453125 C 705.796875 472.5 706.226562 470.648438 707.078125 468.890625 C 708.058594 467.734375 707.378906 471.03125 707.230469 473.21875 C 707.988281 470.5625 708.523438 467.859375 708.839844 465.113281 C 708.988281 463.414062 708.863281 461.738281 708.460938 460.082031 C 708.226562 459.171875 707.808594 458.351562 707.21875 457.621094 C 706.625 456.894531 705.90625 456.320312 705.066406 455.902344 C 706.332031 453.363281 707.253906 450.703125 707.832031 447.921875 C 708.109375 445.515625 707.976562 443.132812 707.429688 440.773438 C 708.8125 438.609375 710.550781 434.808594 709.394531 443.289062 L 710.800781 436.847656 L 711.785156 432.164062 L 712.511719 427.128906 C 713.394531 420.410156 713.949219 414.214844 712.664062 413.839844 C 713.28125 411.234375 713.449219 408.597656 713.167969 405.933594 L 713.769531 399.464844 C 713.921875 397.730469 713.949219 396.269531 714.023438 394.832031 C 714.023438 391.964844 714.199219 389.09375 714.222656 383.859375 L 713.746094 386.753906 C 711.027344 382.601562 713.117188 378.070312 712.5625 369.636719 L 712.867188 369.863281 C 713.210938 366.605469 713.292969 363.339844 713.117188 360.070312 C 713.054688 358.714844 712.898438 357.375 712.640625 356.042969 C 712.386719 354.730469 712.242188 353.402344 712.210938 352.066406 L 712.210938 342.375 L 710.550781 343.609375 C 708.511719 342.953125 708.539062 338.75 708.738281 333.289062 C 709.011719 327.394531 708.425781 321.585938 706.976562 315.867188 L 706.675781 319.996094 C 705.722656 316.113281 705.640625 312.210938 706.425781 308.292969 C 707.234375 304.28125 707.46875 300.234375 707.128906 296.160156 C 707.128906 294.773438 708.261719 298.046875 708.941406 299.832031 C 706.828125 283.621094 706.097656 298.398438 702.324219 287.046875 C 702.902344 284.527344 706.324219 288.832031 704.132812 281.003906 C 703.957031 278.941406 701.113281 273.628906 698.09375 267.5625 C 696.460938 264.566406 694.773438 261.371094 693.414062 258.222656 C 692.734375 256.664062 692.105469 255.101562 691.628906 253.566406 C 691.09375 252.15625 690.667969 250.710938 690.34375 249.238281 C 690.34375 251.753906 690.523438 254.421875 687.550781 249.664062 C 683.929688 242.113281 681.035156 227.1875 674.46875 221.976562 C 674.167969 220.917969 674.191406 220.414062 674.46875 220.265625 C 672.457031 217.746094 669.6875 213.140625 666.617188 209.238281 C 664.410156 206.066406 661.867188 203.1875 658.992188 200.605469 C 659.546875 198.441406 658.0625 195.570312 655.796875 192.097656 C 653.222656 188.347656 650.34375 184.851562 647.167969 181.597656 C 643.945312 178.199219 640.953125 174.902344 638.8125 172.410156 C 636.675781 169.917969 635.695312 167.980469 636.800781 167.074219 C 634.5625 164.558594 632.398438 162.039062 630.082031 159.648438 L 623.0625 152.527344 L 623.765625 152.527344 C 620.691406 148.964844 617.242188 145.808594 613.425781 143.0625 C 611.253906 141.503906 608.949219 140.1875 606.503906 139.109375 C 604.542969 136.894531 606.503906 137.898438 606.90625 137.824219 C 602.515625 133.128906 597.742188 128.859375 592.589844 125.011719 C 587.867188 121.785156 582.875 119.042969 577.621094 116.78125 L 577.394531 114.261719 C 575.574219 113.253906 573.894531 112.046875 572.359375 110.640625 C 570.019531 108.726562 566.925781 106.484375 563.527344 103.894531 C 561.816406 102.609375 560.007812 101.375 558.117188 99.964844 C 556.230469 98.554688 554.167969 97.449219 552.105469 96.238281 C 548.050781 93.71875 543.792969 91.621094 539.324219 89.945312 C 539.574219 89.945312 540.078125 89.695312 541.511719 90.125 C 531.875 86.273438 521.382812 79.828125 511.542969 75.171875 C 501.707031 70.515625 493.125 67.46875 488.519531 69.480469 C 484.09375 68.476562 479.539062 67.972656 475.058594 67.214844 C 491.691406 72.503906 471.761719 69.355469 478.332031 72.402344 C 474.949219 71.585938 471.730469 70.351562 468.667969 68.703125 C 466.378906 67.542969 465.976562 66.636719 470.078125 67.570312 L 471.257812 68.25 C 475.234375 65.378906 450.527344 61.929688 451.40625 59.867188 C 434.648438 56.601562 417.757812 54.335938 400.730469 53.070312 L 388.148438 52.390625 C 383.972656 52.390625 379.820312 52.390625 375.570312 52.390625 C 373.503906 52.390625 371.417969 52.390625 369.378906 52.390625 L 363.214844 52.742188 C 359.113281 53.042969 355.011719 53.121094 350.984375 53.675781 C 352.320312 54.429688 353.652344 55.160156 354.984375 56.015625 C 351.238281 56.316406 347.4375 56.820312 343.789062 57.222656 C 340.769531 56.945312 339.535156 55.585938 347.589844 54.707031 C 344.710938 54.414062 341.933594 54.816406 339.257812 55.914062 C 337.40625 56.402344 335.730469 57.242188 334.226562 58.429688 C 318.5 60.09375 339.789062 54.175781 335.007812 54.957031 L 328.515625 56.316406 L 330.050781 56.316406 C 327.535156 57.347656 326.175781 58.179688 324.289062 58.835938 C 323.15625 59.285156 321.996094 59.660156 320.816406 59.96875 C 319.382812 60.421875 317.59375 60.875 315.230469 61.375 C 309.140625 62.207031 311.78125 60.421875 309.390625 60.875 C 309.390625 60.671875 308.535156 60.875 305.742188 61.628906 C 301.113281 62.761719 296.507812 64.144531 291.90625 65.253906 L 297.992188 65.78125 C 292.207031 68.5 285.136719 69.40625 292.132812 69.910156 C 287.097656 69.507812 274.242188 73.257812 262.414062 78.140625 C 256.453125 80.480469 250.867188 83.351562 246.234375 85.367188 C 243.175781 86.976562 240.039062 88.417969 236.824219 89.695312 C 235.039062 91.054688 233.226562 92.210938 231.339844 93.523438 C 229.453125 94.832031 227.640625 96.039062 225.679688 97.273438 C 221.777344 99.789062 217.476562 102.003906 212.945312 104.824219 C 215.460938 103.765625 217.980469 105 210.152344 109.707031 C 210.152344 106.738281 206.253906 108.398438 201.472656 111.34375 C 196.90625 114.554688 192.007812 117.128906 186.777344 119.070312 C 190.175781 117.9375 185.015625 122.167969 180.363281 126.171875 C 175.707031 130.171875 171.832031 134.351562 176.890625 132.160156 C 170.773438 136.917969 175.304688 131.027344 170.070312 134 C 166.824219 137.347656 163.425781 140.820312 159.777344 144.320312 L 154.117188 149.554688 L 148.40625 155.09375 C 146.46875 156.980469 144.457031 158.820312 142.542969 160.78125 L 136.832031 166.875 C 132.933594 171.03125 129.320312 175.417969 125.988281 180.039062 C 126.289062 180.71875 129.457031 178.328125 127.21875 182.78125 C 123.796875 185.300781 120.675781 187.816406 117.40625 190.5625 C 116.597656 192.144531 116.144531 193.820312 116.046875 195.59375 C 115.664062 196.839844 115.097656 197.996094 114.34375 199.058594 C 113.59375 200.121094 112.691406 201.039062 111.644531 201.8125 C 112.75 201.132812 114.386719 200.152344 112.925781 202.792969 C 99.339844 220.640625 89.273438 241.535156 81.273438 263.03125 C 73.273438 284.527344 67.183594 306.707031 60.539062 328.808594 C 62.90625 322.917969 62.300781 326.996094 61.523438 331.652344 C 62.351562 328.679688 63.132812 331.980469 64.039062 331.5 C 62.425781 337.640625 60.664062 343.835938 59.230469 350.078125 C 60.339844 351.941406 59.988281 357.023438 59.660156 361.933594 C 59.332031 366.84375 59.382812 371.574219 60.488281 372.605469 L 60.136719 366.96875 C 61.472656 371.019531 63.03125 368.277344 64.867188 364.777344 C 66.703125 361.277344 68.894531 357.023438 70.65625 357.730469 C 70.101562 355.210938 70.101562 352.695312 70.65625 350.179688 C 71.160156 347.433594 72.140625 344.488281 73.046875 341.367188 C 73.953125 338.246094 74.707031 334.949219 75.5625 331.574219 C 76.292969 328.050781 76.433594 324.5 75.988281 320.929688 C 77.273438 317.984375 76.667969 323.773438 77.777344 322.289062 C 76.792969 318.4375 77.574219 314.132812 80.039062 306.429688 L 80.214844 307.410156 C 81.265625 302.527344 82.566406 297.710938 84.117188 292.960938 C 85.355469 288.867188 86.808594 284.847656 88.46875 280.902344 C 90.03125 277.003906 91.613281 273 93.730469 268.671875 C 95.84375 264.339844 97.878906 259.40625 100.824219 253.792969 L 98.308594 254.773438 C 99.667969 252.003906 101.292969 249.40625 103.191406 246.972656 C 103.316406 240.101562 96.75 260.839844 96.371094 254.523438 C 98.558594 252.265625 100.304688 249.707031 101.605469 246.847656 C 103.492188 243.296875 105.78125 239.144531 107.894531 234.988281 C 109.871094 231.140625 112.085938 227.429688 114.539062 223.863281 C 116.652344 220.792969 118.539062 218.578125 120.097656 218.125 C 124.628906 211.125 117.027344 219.105469 121.558594 212.058594 L 123.695312 210.800781 L 123.695312 208.28125 C 124.859375 206.488281 126.300781 204.960938 128.023438 203.699219 C 129.257812 202.84375 130.164062 202.566406 130.539062 202.769531 C 129.554688 204.1875 128.648438 205.65625 127.824219 207.175781 C 130.773438 204 133.355469 200.550781 135.574219 196.828125 C 137.207031 194.132812 139.035156 191.570312 141.058594 189.152344 C 139.246094 191.113281 137.386719 193.027344 135.597656 195.042969 C 138.894531 190.410156 142.441406 185.550781 146.34375 180.820312 C 150.242188 176.085938 154.34375 171.277344 158.746094 166.824219 L 165.164062 159.976562 L 171.679688 153.480469 C 175.832031 149.050781 180.183594 145.101562 183.960938 140.894531 L 182.148438 141.347656 C 183.632812 139.8125 184.890625 138.53125 186.023438 137.449219 C 187.15625 136.363281 188.238281 135.558594 189.144531 134.929688 C 191.003906 133.46875 192.464844 132.414062 193.972656 131.53125 L 199.183594 128.109375 C 201.320312 126.722656 204.015625 124.835938 207.6875 121.992188 L 207.257812 122.546875 C 210.449219 119.15625 214.054688 116.296875 218.078125 113.960938 C 214.683594 117.308594 226.507812 110.839844 221.929688 115.070312 C 229.226562 109.582031 231.164062 108.324219 232.144531 107.089844 C 233.851562 104.699219 235.820312 102.550781 238.058594 100.644531 L 241.203125 100.644531 C 242.761719 99.136719 243.542969 98.128906 244.953125 97.046875 C 247.289062 95.226562 249.804688 93.699219 252.5 92.464844 C 246.035156 96.691406 258.816406 91.960938 251.695312 96.917969 C 255.839844 95.789062 259.847656 94.292969 263.722656 92.4375 C 267.144531 90.902344 270.0625 89.46875 272.707031 88.085938 C 277.941406 85.265625 282.191406 83.453125 287.125 84.15625 C 290.722656 80.886719 286.59375 81.640625 282.089844 83.101562 C 277.585938 84.558594 272.832031 86.648438 275.019531 85.289062 C 272.832031 85.464844 274.292969 84.105469 277.058594 82.472656 C 280.230469 80.777344 283.546875 79.425781 286.996094 78.417969 C 290.28125 77.636719 293.59375 77.46875 296.9375 77.914062 C 299.285156 77.996094 301.625 77.902344 303.957031 77.636719 C 305.316406 77.488281 306.773438 77.261719 308.359375 76.933594 C 309.945312 76.605469 311.707031 76.355469 313.59375 75.902344 C 312.085938 76.226562 312.058594 76.53125 310.550781 76.859375 C 313.480469 76.535156 316.324219 75.847656 319.078125 74.792969 C 320.515625 74.339844 322 73.863281 323.582031 73.535156 C 325.25 73.25 326.925781 73.140625 328.617188 73.207031 C 332.136719 70.1875 337.75 71.695312 338.429688 68.550781 L 324.414062 71.746094 C 328.339844 70.640625 331.960938 68.902344 336.464844 67.34375 C 341.820312 65.585938 347.3125 64.746094 352.949219 64.824219 C 350.527344 66.023438 348.011719 66.964844 345.398438 67.644531 C 349.398438 68.074219 352.949219 65.984375 357 66.613281 C 356.546875 68.074219 352.242188 68.726562 346.933594 69.507812 C 344.417969 69.882812 341.472656 70.238281 338.757812 70.765625 C 336.257812 71.300781 333.832031 72.074219 331.484375 73.082031 C 334.574219 72.890625 337.582031 72.304688 340.515625 71.320312 C 343.488281 70.640625 345.425781 70.363281 343.488281 72.226562 C 346.304688 69.707031 350.128906 69.433594 354.484375 69.128906 C 359.421875 69.3125 364.234375 68.625 368.925781 67.066406 L 368.347656 68.902344 C 370.996094 68.089844 373.707031 67.617188 376.472656 67.492188 L 371.039062 70.011719 C 379.46875 67.847656 387.394531 71.167969 395.472656 70.488281 C 386.992188 70.289062 386.035156 69.757812 386.289062 69.054688 C 386.539062 68.347656 388.074219 67.417969 384.449219 66.863281 C 405.6875 64.851562 396.527344 71.371094 419.878906 72.375 C 416.707031 72.375 408.078125 70.363281 413.109375 69.859375 C 415.324219 70.238281 417.914062 70.613281 420.230469 71.242188 C 422.191406 71.738281 424.09375 72.390625 425.941406 73.207031 C 441.390625 74.792969 423.804688 71.066406 430.523438 70.816406 C 435.554688 73.558594 438.222656 71.117188 445.167969 71.597656 L 444.890625 73.382812 C 447.054688 73.914062 448.765625 74.265625 450.125 74.492188 C 451.152344 74.722656 452.191406 74.875 453.242188 74.945312 C 454.230469 75.070312 455.144531 74.867188 455.984375 74.339844 C 457.117188 73.660156 458.050781 72.957031 465.773438 75.472656 L 458.550781 76.402344 C 461.320312 76.855469 464.113281 77.160156 466.855469 77.714844 C 466.125 78.242188 465.398438 78.71875 464.667969 79.273438 C 468.167969 79.570312 471.613281 80.175781 475.007812 81.085938 C 478.332031 82.03125 481.570312 83.214844 484.722656 84.636719 C 483.160156 82.746094 486.835938 81.867188 494.410156 84.359375 C 499.113281 87.226562 491.011719 84.835938 501.554688 88.6875 C 499.796875 88.941406 498.058594 88.828125 496.347656 88.347656 C 494.636719 87.871094 493.09375 87.070312 491.714844 85.945312 C 491.035156 86.347656 488.972656 86.222656 488.320312 86.625 C 493.910156 89.269531 499.65625 91.519531 505.554688 93.371094 C 504.199219 92.820312 502.898438 92.15625 501.65625 91.382812 C 504.296875 91.984375 506.988281 92.539062 509.65625 93.195312 L 517.558594 95.382812 C 519.597656 97.070312 517.558594 96.71875 515.46875 96.390625 C 518.835938 97.308594 522.140625 98.40625 525.382812 99.6875 C 523.621094 100.46875 523.246094 101.851562 516.777344 99.6875 C 521.808594 101.199219 526.441406 103.136719 531.269531 104.976562 C 531.925781 105.980469 537.410156 110.160156 535.398438 109.730469 C 539.65625 112.402344 544.132812 114.625 548.835938 116.402344 C 554.113281 118.675781 559.019531 121.578125 563.554688 125.113281 C 564.933594 125.5 566.214844 126.097656 567.402344 126.898438 C 569.515625 128.511719 571.53125 130.148438 573.492188 131.785156 C 575.457031 133.417969 577.292969 135.257812 579.28125 136.96875 C 581.269531 138.679688 583.355469 140.339844 585.597656 142.003906 C 587.921875 143.871094 590.355469 145.59375 592.894531 147.164062 C 594.074219 149.402344 595.410156 151.542969 596.441406 153.859375 C 603.988281 160.203125 591.683594 144.695312 604.292969 155.34375 C 613.324219 162.894531 605.875 159.949219 608.214844 163.347656 C 611.511719 165.40625 614.679688 167.636719 617.726562 170.046875 C 621.640625 173.351562 624.871094 177.226562 627.414062 181.675781 C 625.074219 179.234375 623.539062 176.890625 621.25 174.527344 Z M 683.652344 278.4375 C 683.097656 277.378906 682.167969 275.921875 681.414062 274.308594 C 680.601562 273.109375 680.191406 271.78125 680.179688 270.332031 C 683.125 272.070312 682.949219 274.382812 683.628906 278.4375 Z M 695.328125 462.621094 C 695.472656 460 696.183594 457.539062 697.464844 455.246094 C 697.066406 457.796875 696.355469 460.253906 695.328125 462.621094 Z M 279.222656 695.214844 L 279.5 695.214844 C 284.558594 697.554688 282.769531 696.726562 279.222656 695.113281 Z M 268.65625 690.507812 C 267.472656 690.332031 267.472656 690.507812 267.824219 691.011719 C 269.953125 691.3125 271.964844 691.96875 273.863281 692.972656 C 272.390625 691.582031 270.65625 690.726562 268.65625 690.40625 Z M 308.308594 62.007812 L 310.601562 62.007812 C 305.792969 63.617188 307.050781 62.835938 308.308594 62.007812 Z M 308.308594 62.007812 " fill-opacity="1" fill-rule="nonzero"/></g><path fill="#231f20" d="M 697.492188 441.203125 C 697.753906 440.753906 698.140625 440.476562 698.648438 440.371094 C 698.523438 439.390625 698.171875 439.3125 697.492188 441.203125 Z M 697.492188 441.203125 " fill-opacity="1" fill-rule="nonzero"/><path fill="#231f20" d="M 564.15625 125.3125 L 563.855469 125.085938 C 563.695312 125.039062 563.539062 125.039062 563.378906 125.085938 Z M 564.15625 125.3125 " fill-opacity="1" fill-rule="nonzero"/><path fill="#231f20" d="M 441.667969 692.21875 C 443.167969 692.070312 444.660156 692.117188 446.148438 692.371094 C 446.171875 691.917969 445.117188 691.691406 441.667969 692.21875 Z M 441.667969 692.21875 " fill-opacity="1" fill-rule="nonzero"/><path fill="#231f20" d="M 212.316406 665.9375 C 214.457031 667.199219 216.746094 668.230469 218.960938 669.363281 C 216.980469 668.320312 215.203125 667 213.625 665.410156 C 213.425781 665.863281 214.304688 667.171875 212.316406 665.9375 Z M 212.316406 665.9375 " fill-opacity="1" fill-rule="nonzero"/><path fill="#231f20" d="M 168.558594 618.515625 C 167.65625 617.960938 166.925781 616.980469 166.042969 616.449219 L 165.667969 617.257812 C 168.9375 620.328125 171.65625 621.988281 168.558594 618.515625 Z M 168.558594 618.515625 " fill-opacity="1" fill-rule="nonzero"/><path fill="#231f20" d="M 209.800781 657.128906 C 209.976562 656.324219 209.019531 655.417969 207.484375 654.386719 C 206.707031 653.882812 205.773438 653.328125 204.769531 652.75 L 201.648438 650.785156 L 202.378906 651.3125 C 201.144531 651.765625 201.75 652.625 203.285156 653.832031 C 205.382812 655.078125 207.554688 656.175781 209.800781 657.128906 Z M 209.800781 657.128906 " fill-opacity="1" fill-rule="nonzero"/><path fill="#231f20" d="M 200.640625 650.179688 C 199.308594 649.324219 197.976562 648.417969 196.765625 647.464844 C 195.785156 647.816406 198.226562 648.722656 200.640625 650.179688 Z M 200.640625 650.179688 " fill-opacity="1" fill-rule="nonzero"/><path fill="#231f20" d="M 254.691406 685.800781 C 252.601562 684.414062 252.476562 686.957031 251.46875 685.800781 C 249.808594 686.128906 253.808594 687.285156 256.5 687.789062 C 257.886719 688.066406 259.019531 688.066406 259.019531 687.789062 C 259.019531 687.511719 257.859375 686.957031 254.691406 685.800781 Z M 254.691406 685.800781 " fill-opacity="1" fill-rule="nonzero"/><path fill="#231f20" d="M 209.097656 650.683594 L 209.574219 653.226562 L 212.796875 653.503906 Z M 209.097656 650.683594 " fill-opacity="1" fill-rule="nonzero"/><path fill="#231f20" d="M 242.964844 671.878906 L 235.996094 667.726562 C 235.996094 668.054688 234.964844 667.726562 233.753906 667.296875 C 238.183594 669.613281 242.890625 672.460938 242.964844 671.878906 Z M 242.964844 671.878906 " fill-opacity="1" fill-rule="nonzero"/><path fill="#231f20" d="M 233.753906 667.296875 C 231.886719 666.164062 229.941406 665.179688 227.917969 664.355469 C 229.808594 665.445312 231.753906 666.425781 233.753906 667.296875 Z M 233.753906 667.296875 " fill-opacity="1" fill-rule="nonzero"/><path fill="#231f20" d="M 218.65625 656.148438 L 220.46875 657.757812 L 225.324219 660.730469 C 223.136719 659.191406 220.820312 657.808594 218.65625 656.148438 Z M 218.65625 656.148438 " fill-opacity="1" fill-rule="nonzero"/><path fill="#231f20" d="M 325.144531 700.171875 L 333.949219 701.207031 C 334.933594 700.726562 332.640625 699.921875 329.371094 699.59375 C 327.207031 699.644531 323.910156 699.242188 325.144531 700.171875 Z M 325.144531 700.171875 " fill-opacity="1" fill-rule="nonzero"/><path fill="#231f20" d="M 300.511719 688.972656 C 301.800781 689.570312 302.90625 690.410156 303.832031 691.488281 L 304.6875 689.300781 Z M 300.511719 688.972656 " fill-opacity="1" fill-rule="nonzero"/><path fill="#231f20" d="M 325.292969 694.382812 C 326.300781 693.90625 338.027344 694.761719 327.183594 692.972656 C 326.199219 693.527344 317.570312 692.34375 325.292969 694.382812 Z M 325.292969 694.382812 " fill-opacity="1" fill-rule="nonzero"/><path fill="#231f20" d="M 456.085938 695.945312 L 453.921875 696.5 L 455.03125 700.171875 Z M 456.085938 695.945312 " fill-opacity="1" fill-rule="nonzero"/><path fill="#231f20" d="M 557.917969 643.335938 C 548.910156 647.992188 557.1875 646.683594 548.808594 650.558594 C 547.273438 652.625 555.652344 647.363281 553.992188 649.324219 C 558.699219 645.222656 561.691406 643.863281 557.917969 643.335938 Z M 557.917969 643.335938 " fill-opacity="1" fill-rule="nonzero"/><path fill="#231f20" d="M 554.019531 649.351562 C 553.261719 650.003906 552.484375 650.734375 551.675781 651.539062 C 552.515625 650.871094 553.292969 650.140625 554.019531 649.351562 Z M 554.019531 649.351562 " fill-opacity="1" fill-rule="nonzero"/><path fill="#231f20" d="M 56.335938 363.066406 C 55.835938 365.332031 55.609375 367.648438 55.257812 369.9375 L 56.664062 365.535156 C 56.539062 364.703125 56.464844 363.871094 56.335938 363.066406 Z M 56.335938 363.066406 " fill-opacity="1" fill-rule="nonzero"/><path fill="#231f20" d="M 58.753906 376.359375 L 56.238281 377.941406 L 58.351562 382.070312 C 58.144531 380.144531 58.277344 378.238281 58.753906 376.359375 Z M 58.753906 376.359375 " fill-opacity="1" fill-rule="nonzero"/><path fill="#231f20" d="M 684.355469 297.089844 L 685.0625 297.390625 C 685.246094 295.484375 684.996094 293.640625 684.304688 291.855469 Z M 684.355469 297.089844 " fill-opacity="1" fill-rule="nonzero"/><path fill="#231f20" d="M 650.464844 216.691406 L 651.242188 217.972656 L 651.570312 214.425781 Z M 650.464844 216.691406 " fill-opacity="1" fill-rule="nonzero"/><path fill="#231f20" d="M 602.277344 161.511719 C 604.417969 163.574219 607.183594 165.792969 609.171875 168.03125 C 604.46875 163.550781 603.636719 158.996094 602.277344 161.511719 Z M 602.277344 161.511719 " fill-opacity="1" fill-rule="nonzero"/><g fill="#000000" fill-opacity="1"><g transform="translate(131.990727, 477.006646)"><g><path d="M 52.75 -7.8125 C 54.238281 -3.96875 56.378906 -1.984375 59.171875 -1.859375 L 59.171875 0 C 56.691406 -0.1875 53.375 -0.28125 49.21875 -0.28125 C 43.882812 -0.28125 39.914062 -0.1875 37.3125 0 L 37.3125 -1.859375 C 39.664062 -1.984375 41.351562 -2.273438 42.375 -2.734375 C 43.394531 -3.203125 43.90625 -4.054688 43.90625 -5.296875 C 43.90625 -6.359375 43.535156 -7.816406 42.796875 -9.671875 L 37.125 -24.9375 L 14.609375 -24.9375 L 10.796875 -15.078125 C 9.554688 -11.722656 8.9375 -9.175781 8.9375 -7.4375 C 8.9375 -5.519531 9.601562 -4.125 10.9375 -3.25 C 12.269531 -2.382812 14.300781 -1.921875 17.03125 -1.859375 L 17.03125 0 C 13.488281 -0.1875 9.921875 -0.28125 6.328125 -0.28125 C 3.535156 -0.28125 1.207031 -0.1875 -0.65625 0 L -0.65625 -1.859375 C 2.445312 -2.609375 4.898438 -5.304688 6.703125 -9.953125 L 28.5625 -66.328125 L 30.046875 -66.328125 Z M 36.375 -26.796875 L 25.953125 -54.609375 L 15.34375 -26.796875 Z M 36.375 -26.796875 "/></g></g></g><g fill="#000000" fill-opacity="1"><g transform="translate(190.596326, 477.006646)"><g><path d="M 31.625 -49.21875 C 34.113281 -49.21875 36.144531 -48.503906 37.71875 -47.078125 C 39.300781 -45.648438 40.09375 -43.910156 40.09375 -41.859375 C 40.09375 -40.242188 39.613281 -38.863281 38.65625 -37.71875 C 37.695312 -36.570312 36.410156 -36 34.796875 -36 C 33.429688 -36 32.265625 -36.429688 31.296875 -37.296875 C 30.335938 -38.171875 29.859375 -39.351562 29.859375 -40.84375 C 29.859375 -42.882812 30.914062 -44.554688 33.03125 -45.859375 C 32.59375 -46.484375 31.941406 -46.796875 31.078125 -46.796875 C 28.648438 -46.796875 26.441406 -45.847656 24.453125 -43.953125 C 22.472656 -42.066406 20.925781 -39.757812 19.8125 -37.03125 C 18.695312 -34.300781 18.140625 -31.726562 18.140625 -29.3125 L 18.140625 -9.578125 C 18.140625 -6.722656 18.960938 -4.738281 20.609375 -3.625 C 22.253906 -2.507812 24.71875 -1.953125 28 -1.953125 L 28 0 L 25.765625 -0.09375 C 19.441406 -0.28125 15.410156 -0.375 13.671875 -0.375 C 12.054688 -0.375 8.398438 -0.25 2.703125 0 L 2.703125 -1.953125 C 5.304688 -1.953125 7.132812 -2.429688 8.1875 -3.390625 C 9.238281 -4.359375 9.765625 -6.113281 9.765625 -8.65625 L 9.765625 -37.765625 C 9.765625 -40.617188 9.238281 -42.695312 8.1875 -44 C 7.132812 -45.300781 5.304688 -45.953125 2.703125 -45.953125 L 2.703125 -47.90625 C 4.679688 -47.71875 6.601562 -47.625 8.46875 -47.625 C 12.375 -47.625 15.597656 -48.0625 18.140625 -48.9375 L 18.140625 -37.3125 C 19.253906 -40.40625 21.035156 -43.160156 23.484375 -45.578125 C 25.941406 -48.003906 28.65625 -49.21875 31.625 -49.21875 Z M 31.625 -49.21875 "/></g></g></g><g fill="#000000" fill-opacity="1"><g transform="translate(231.992345, 477.006646)"><g><path d="M 17.671875 -47.8125 L 31.4375 -47.8125 L 31.4375 -45.953125 L 17.671875 -45.953125 L 17.671875 -9.953125 C 17.671875 -7.160156 18.179688 -5.144531 19.203125 -3.90625 C 20.234375 -2.664062 21.707031 -2.046875 23.625 -2.046875 C 25.550781 -2.046875 27.195312 -2.820312 28.5625 -4.375 C 29.925781 -5.925781 31.070312 -8.46875 32 -12 L 33.859375 -11.53125 C 32.304688 -2.976562 28.273438 1.296875 21.765625 1.296875 C 19.660156 1.296875 17.925781 1.046875 16.5625 0.546875 C 15.195312 0.0546875 13.988281 -0.710938 12.9375 -1.765625 C 11.570312 -3.128906 10.625 -4.800781 10.09375 -6.78125 C 9.5625 -8.769531 9.296875 -11.441406 9.296875 -14.796875 L 9.296875 -45.953125 L 0.375 -45.953125 L 0.375 -47.8125 L 9.296875 -47.8125 L 9.296875 -62.046875 C 12.773438 -62.171875 15.566406 -62.609375 17.671875 -63.359375 Z M 17.671875 -47.8125 "/></g></g></g><g fill="#000000" fill-opacity="1"><g transform="translate(264.923099, 477.006646)"><g><path d="M 13.3125 -71.171875 C 14.914062 -71.171875 16.304688 -70.582031 17.484375 -69.40625 C 18.671875 -68.226562 19.265625 -66.832031 19.265625 -65.21875 C 19.265625 -63.601562 18.671875 -62.207031 17.484375 -61.03125 C 16.304688 -59.851562 14.914062 -59.265625 13.3125 -59.265625 C 11.695312 -59.265625 10.296875 -59.851562 9.109375 -61.03125 C 7.929688 -62.207031 7.34375 -63.601562 7.34375 -65.21875 C 7.34375 -66.832031 7.929688 -68.226562 9.109375 -69.40625 C 10.296875 -70.582031 11.695312 -71.171875 13.3125 -71.171875 Z M 18.140625 -8.65625 C 18.140625 -6.113281 18.664062 -4.359375 19.71875 -3.390625 C 20.769531 -2.429688 22.601562 -1.953125 25.21875 -1.953125 L 25.21875 0 C 19.507812 -0.25 15.753906 -0.375 13.953125 -0.375 C 12.148438 -0.375 8.398438 -0.25 2.703125 0 L 2.703125 -1.953125 C 5.304688 -1.953125 7.132812 -2.429688 8.1875 -3.390625 C 9.238281 -4.359375 9.765625 -6.113281 9.765625 -8.65625 L 9.765625 -37.765625 C 9.765625 -40.617188 9.238281 -42.695312 8.1875 -44 C 7.132812 -45.300781 5.304688 -45.953125 2.703125 -45.953125 L 2.703125 -47.90625 C 4.679688 -47.71875 6.601562 -47.625 8.46875 -47.625 C 12.375 -47.625 15.597656 -48.0625 18.140625 -48.9375 Z M 18.140625 -8.65625 "/></g></g></g><g fill="#000000" fill-opacity="1"><g transform="translate(292.179344, 477.006646)"><g><path d="M 19.34375 -49.21875 C 21.582031 -49.21875 23.566406 -48.875 25.296875 -48.1875 C 27.035156 -47.507812 28.429688 -46.703125 29.484375 -45.765625 C 30.171875 -45.273438 30.734375 -45.03125 31.171875 -45.03125 C 32.285156 -45.03125 32.96875 -46.394531 33.21875 -49.125 L 35.359375 -49.125 C 35.109375 -46.082031 34.984375 -40.8125 34.984375 -33.3125 L 32.84375 -33.3125 C 32.15625 -37.394531 30.832031 -40.769531 28.875 -43.4375 C 26.925781 -46.113281 24.03125 -47.453125 20.1875 -47.453125 C 17.957031 -47.453125 16.128906 -46.8125 14.703125 -45.53125 C 13.273438 -44.257812 12.5625 -42.507812 12.5625 -40.28125 C 12.5625 -38.113281 13.304688 -36.300781 14.796875 -34.84375 C 16.285156 -33.382812 18.671875 -31.628906 21.953125 -29.578125 C 22.515625 -29.273438 23.351562 -28.75 24.46875 -28 C 27.320312 -26.144531 29.613281 -24.503906 31.34375 -23.078125 C 33.082031 -21.648438 34.492188 -20.003906 35.578125 -18.140625 C 36.671875 -16.273438 37.21875 -14.132812 37.21875 -11.71875 C 37.21875 -7.625 35.679688 -4.429688 32.609375 -2.140625 C 29.535156 0.148438 25.765625 1.296875 21.296875 1.296875 C 18.515625 1.296875 16.066406 0.863281 13.953125 0 C 12.585938 -0.675781 11.316406 -1.515625 10.140625 -2.515625 C 9.890625 -2.765625 9.609375 -2.890625 9.296875 -2.890625 C 8.867188 -2.890625 8.484375 -2.578125 8.140625 -1.953125 C 7.796875 -1.328125 7.53125 -0.457031 7.34375 0.65625 L 5.203125 0.65625 C 5.453125 -2.882812 5.578125 -9.085938 5.578125 -17.953125 L 7.71875 -17.953125 C 8.40625 -12.117188 9.644531 -7.757812 11.4375 -4.875 C 13.238281 -2 16.3125 -0.5625 20.65625 -0.5625 C 22.820312 -0.5625 24.742188 -1.273438 26.421875 -2.703125 C 28.097656 -4.128906 28.9375 -6.359375 28.9375 -9.390625 C 28.9375 -11.816406 28.113281 -13.863281 26.46875 -15.53125 C 24.820312 -17.207031 22.140625 -19.222656 18.421875 -21.578125 C 15.378906 -23.503906 13.035156 -25.085938 11.390625 -26.328125 C 9.753906 -27.566406 8.375 -29.082031 7.25 -30.875 C 6.132812 -32.675781 5.578125 -34.789062 5.578125 -37.21875 C 5.578125 -41.125 6.878906 -44.097656 9.484375 -46.140625 C 12.085938 -48.191406 15.375 -49.21875 19.34375 -49.21875 Z M 19.34375 -49.21875 "/></g></g></g><g fill="#000000" fill-opacity="1"><g transform="translate(333.761413, 477.006646)"><g><path d="M 15.171875 0.65625 C 11.253906 0.65625 8.347656 -0.316406 6.453125 -2.265625 C 4.566406 -4.222656 3.625 -6.941406 3.625 -10.421875 C 3.625 -13.210938 4.382812 -15.503906 5.90625 -17.296875 C 7.425781 -19.097656 9.222656 -20.523438 11.296875 -21.578125 C 13.378906 -22.640625 16.125 -23.757812 19.53125 -24.9375 C 23.007812 -26.113281 25.582031 -27.195312 27.25 -28.1875 C 28.925781 -29.175781 29.765625 -30.507812 29.765625 -32.1875 L 29.765625 -37.953125 C 29.765625 -41.554688 29.003906 -44.023438 27.484375 -45.359375 C 25.972656 -46.691406 23.851562 -47.359375 21.125 -47.359375 C 16.78125 -47.359375 13.707031 -46.238281 11.90625 -44 C 13.144531 -43.6875 14.179688 -43.035156 15.015625 -42.046875 C 15.859375 -41.054688 16.28125 -39.816406 16.28125 -38.328125 C 16.28125 -36.773438 15.78125 -35.550781 14.78125 -34.65625 C 13.789062 -33.757812 12.523438 -33.3125 10.984375 -33.3125 C 9.242188 -33.3125 7.9375 -33.851562 7.0625 -34.9375 C 6.195312 -36.019531 5.765625 -37.335938 5.765625 -38.890625 C 5.765625 -40.378906 6.117188 -41.617188 6.828125 -42.609375 C 7.546875 -43.597656 8.617188 -44.585938 10.046875 -45.578125 C 11.535156 -46.640625 13.425781 -47.507812 15.71875 -48.1875 C 18.019531 -48.875 20.53125 -49.21875 23.25 -49.21875 C 28.09375 -49.21875 31.753906 -48.066406 34.234375 -45.765625 C 35.785156 -44.335938 36.820312 -42.613281 37.34375 -40.59375 C 37.875 -38.582031 38.140625 -35.9375 38.140625 -32.65625 L 38.140625 -6.796875 C 38.140625 -5.242188 38.351562 -4.125 38.78125 -3.4375 C 39.21875 -2.757812 39.96875 -2.421875 41.03125 -2.421875 C 41.769531 -2.421875 42.460938 -2.585938 43.109375 -2.921875 C 43.765625 -3.265625 44.46875 -3.75 45.21875 -4.375 L 46.234375 -2.796875 C 44.617188 -1.554688 43.238281 -0.671875 42.09375 -0.140625 C 40.945312 0.390625 39.503906 0.65625 37.765625 0.65625 C 34.796875 0.65625 32.71875 -0.0859375 31.53125 -1.578125 C 30.351562 -3.066406 29.765625 -5.082031 29.765625 -7.625 C 27.910156 -4.53125 25.769531 -2.375 23.34375 -1.15625 C 20.925781 0.0507812 18.203125 0.65625 15.171875 0.65625 Z M 19.25 -3.0625 C 23.34375 -3.0625 26.847656 -5.421875 29.765625 -10.140625 L 29.765625 -28.375 C 29.210938 -27.507812 28.4375 -26.796875 27.4375 -26.234375 C 26.445312 -25.671875 24.929688 -24.925781 22.890625 -24 C 20.523438 -23.007812 18.613281 -22.0625 17.15625 -21.15625 C 15.707031 -20.257812 14.453125 -19.035156 13.390625 -17.484375 C 12.335938 -15.941406 11.8125 -13.957031 11.8125 -11.53125 C 11.8125 -8.738281 12.492188 -6.628906 13.859375 -5.203125 C 15.222656 -3.773438 17.019531 -3.0625 19.25 -3.0625 Z M 19.25 -3.0625 "/></g></g></g><g fill="#000000" fill-opacity="1"><g transform="translate(380.087741, 477.006646)"><g><path d="M 33.953125 -49.21875 C 38.296875 -49.21875 41.582031 -48.035156 43.8125 -45.671875 C 44.988281 -44.429688 45.828125 -42.878906 46.328125 -41.015625 C 46.828125 -39.160156 47.078125 -36.648438 47.078125 -33.484375 L 47.078125 -8.65625 C 47.078125 -6.113281 47.601562 -4.359375 48.65625 -3.390625 C 49.707031 -2.429688 51.535156 -1.953125 54.140625 -1.953125 L 54.140625 0 C 48.429688 -0.25 44.710938 -0.375 42.984375 -0.375 C 41.242188 -0.375 37.769531 -0.25 32.5625 0 L 32.5625 -1.953125 C 34.851562 -1.953125 36.445312 -2.429688 37.34375 -3.390625 C 38.25 -4.359375 38.703125 -6.113281 38.703125 -8.65625 L 38.703125 -35.53125 C 38.703125 -39.007812 38.203125 -41.660156 37.203125 -43.484375 C 36.210938 -45.316406 34.203125 -46.234375 31.171875 -46.234375 C 28.617188 -46.234375 26.347656 -45.488281 24.359375 -44 C 22.378906 -42.507812 20.847656 -40.476562 19.765625 -37.90625 C 18.679688 -35.332031 18.140625 -32.46875 18.140625 -29.3125 L 18.140625 -8.65625 C 18.140625 -6.113281 18.585938 -4.359375 19.484375 -3.390625 C 20.390625 -2.429688 21.988281 -1.953125 24.28125 -1.953125 L 24.28125 0 C 19.070312 -0.25 15.597656 -0.375 13.859375 -0.375 C 12.117188 -0.375 8.398438 -0.25 2.703125 0 L 2.703125 -1.953125 C 5.304688 -1.953125 7.132812 -2.429688 8.1875 -3.390625 C 9.238281 -4.359375 9.765625 -6.113281 9.765625 -8.65625 L 9.765625 -37.765625 C 9.765625 -40.617188 9.238281 -42.695312 8.1875 -44 C 7.132812 -45.300781 5.304688 -45.953125 2.703125 -45.953125 L 2.703125 -47.90625 C 4.679688 -47.71875 6.601562 -47.625 8.46875 -47.625 C 12.375 -47.625 15.597656 -48.0625 18.140625 -48.9375 L 18.140625 -37.953125 C 19.691406 -41.921875 21.847656 -44.789062 24.609375 -46.5625 C 27.367188 -48.332031 30.484375 -49.21875 33.953125 -49.21875 Z M 33.953125 -49.21875 "/></g></g></g><g fill="#000000" fill-opacity="1"><g transform="translate(435.623534, 477.006646)"><g><path d="M 52.75 -7.8125 C 54.238281 -3.96875 56.378906 -1.984375 59.171875 -1.859375 L 59.171875 0 C 56.691406 -0.1875 53.375 -0.28125 49.21875 -0.28125 C 43.882812 -0.28125 39.914062 -0.1875 37.3125 0 L 37.3125 -1.859375 C 39.664062 -1.984375 41.351562 -2.273438 42.375 -2.734375 C 43.394531 -3.203125 43.90625 -4.054688 43.90625 -5.296875 C 43.90625 -6.359375 43.535156 -7.816406 42.796875 -9.671875 L 37.125 -24.9375 L 14.609375 -24.9375 L 10.796875 -15.078125 C 9.554688 -11.722656 8.9375 -9.175781 8.9375 -7.4375 C 8.9375 -5.519531 9.601562 -4.125 10.9375 -3.25 C 12.269531 -2.382812 14.300781 -1.921875 17.03125 -1.859375 L 17.03125 0 C 13.488281 -0.1875 9.921875 -0.28125 6.328125 -0.28125 C 3.535156 -0.28125 1.207031 -0.1875 -0.65625 0 L -0.65625 -1.859375 C 2.445312 -2.609375 4.898438 -5.304688 6.703125 -9.953125 L 28.5625 -66.328125 L 30.046875 -66.328125 Z M 36.375 -26.796875 L 25.953125 -54.609375 L 15.34375 -26.796875 Z M 36.375 -26.796875 "/></g></g></g><g fill="#000000" fill-opacity="1"><g transform="translate(494.229132, 477.006646)"><g><path d="M 44.9375 -10.046875 C 44.9375 -7.191406 45.460938 -5.113281 46.515625 -3.8125 C 47.566406 -2.507812 49.394531 -1.859375 52 -1.859375 L 52 0.09375 C 50.082031 -0.09375 48.160156 -0.1875 46.234375 -0.1875 C 42.328125 -0.1875 39.101562 0.242188 36.5625 1.109375 L 36.5625 -9.859375 C 35.070312 -6.015625 32.960938 -3.191406 30.234375 -1.390625 C 27.503906 0.398438 24.523438 1.296875 21.296875 1.296875 C 17.085938 1.296875 13.863281 0.117188 11.625 -2.234375 C 10.507812 -3.472656 9.71875 -5.050781 9.25 -6.96875 C 8.789062 -8.894531 8.5625 -11.378906 8.5625 -14.421875 L 8.5625 -37.765625 C 8.5625 -40.617188 8.03125 -42.695312 6.96875 -44 C 5.914062 -45.300781 4.085938 -45.953125 1.484375 -45.953125 L 1.484375 -47.90625 C 3.410156 -47.71875 5.332031 -47.625 7.25 -47.625 C 11.164062 -47.625 14.394531 -48.0625 16.9375 -48.9375 L 16.9375 -12.375 C 16.9375 -10.019531 17.070312 -8.113281 17.34375 -6.65625 C 17.625 -5.195312 18.273438 -4 19.296875 -3.0625 C 20.328125 -2.132812 21.894531 -1.671875 24 -1.671875 C 26.351562 -1.671875 28.492188 -2.414062 30.421875 -3.90625 C 32.347656 -5.394531 33.851562 -7.425781 34.9375 -10 C 36.019531 -12.570312 36.5625 -15.410156 36.5625 -18.515625 L 36.5625 -37.765625 C 36.5625 -40.617188 36.03125 -42.695312 34.96875 -44 C 33.914062 -45.300781 32.085938 -45.953125 29.484375 -45.953125 L 29.484375 -47.90625 C 31.410156 -47.71875 33.335938 -47.625 35.265625 -47.625 C 39.171875 -47.625 42.394531 -48.0625 44.9375 -48.9375 Z M 44.9375 -10.046875 "/></g></g></g><g fill="#000000" fill-opacity="1"><g transform="translate(548.276547, 477.006646)"><g><path d="M 31.625 -49.21875 C 34.113281 -49.21875 36.144531 -48.503906 37.71875 -47.078125 C 39.300781 -45.648438 40.09375 -43.910156 40.09375 -41.859375 C 40.09375 -40.242188 39.613281 -38.863281 38.65625 -37.71875 C 37.695312 -36.570312 36.410156 -36 34.796875 -36 C 33.429688 -36 32.265625 -36.429688 31.296875 -37.296875 C 30.335938 -38.171875 29.859375 -39.351562 29.859375 -40.84375 C 29.859375 -42.882812 30.914062 -44.554688 33.03125 -45.859375 C 32.59375 -46.484375 31.941406 -46.796875 31.078125 -46.796875 C 28.648438 -46.796875 26.441406 -45.847656 24.453125 -43.953125 C 22.472656 -42.066406 20.925781 -39.757812 19.8125 -37.03125 C 18.695312 -34.300781 18.140625 -31.726562 18.140625 -29.3125 L 18.140625 -9.578125 C 18.140625 -6.722656 18.960938 -4.738281 20.609375 -3.625 C 22.253906 -2.507812 24.71875 -1.953125 28 -1.953125 L 28 0 L 25.765625 -0.09375 C 19.441406 -0.28125 15.410156 -0.375 13.671875 -0.375 C 12.054688 -0.375 8.398438 -0.25 2.703125 0 L 2.703125 -1.953125 C 5.304688 -1.953125 7.132812 -2.429688 8.1875 -3.390625 C 9.238281 -4.359375 9.765625 -6.113281 9.765625 -8.65625 L 9.765625 -37.765625 C 9.765625 -40.617188 9.238281 -42.695312 8.1875 -44 C 7.132812 -45.300781 5.304688 -45.953125 2.703125 -45.953125 L 2.703125 -47.90625 C 4.679688 -47.71875 6.601562 -47.625 8.46875 -47.625 C 12.375 -47.625 15.597656 -48.0625 18.140625 -48.9375 L 18.140625 -37.3125 C 19.253906 -40.40625 21.035156 -43.160156 23.484375 -45.578125 C 25.941406 -48.003906 28.65625 -49.21875 31.625 -49.21875 Z M 31.625 -49.21875 "/></g></g></g><g fill="#000000" fill-opacity="1"><g transform="translate(589.672591, 477.006646)"><g><path d="M 15.171875 0.65625 C 11.253906 0.65625 8.347656 -0.316406 6.453125 -2.265625 C 4.566406 -4.222656 3.625 -6.941406 3.625 -10.421875 C 3.625 -13.210938 4.382812 -15.503906 5.90625 -17.296875 C 7.425781 -19.097656 9.222656 -20.523438 11.296875 -21.578125 C 13.378906 -22.640625 16.125 -23.757812 19.53125 -24.9375 C 23.007812 -26.113281 25.582031 -27.195312 27.25 -28.1875 C 28.925781 -29.175781 29.765625 -30.507812 29.765625 -32.1875 L 29.765625 -37.953125 C 29.765625 -41.554688 29.003906 -44.023438 27.484375 -45.359375 C 25.972656 -46.691406 23.851562 -47.359375 21.125 -47.359375 C 16.78125 -47.359375 13.707031 -46.238281 11.90625 -44 C 13.144531 -43.6875 14.179688 -43.035156 15.015625 -42.046875 C 15.859375 -41.054688 16.28125 -39.816406 16.28125 -38.328125 C 16.28125 -36.773438 15.78125 -35.550781 14.78125 -34.65625 C 13.789062 -33.757812 12.523438 -33.3125 10.984375 -33.3125 C 9.242188 -33.3125 7.9375 -33.851562 7.0625 -34.9375 C 6.195312 -36.019531 5.765625 -37.335938 5.765625 -38.890625 C 5.765625 -40.378906 6.117188 -41.617188 6.828125 -42.609375 C 7.546875 -43.597656 8.617188 -44.585938 10.046875 -45.578125 C 11.535156 -46.640625 13.425781 -47.507812 15.71875 -48.1875 C 18.019531 -48.875 20.53125 -49.21875 23.25 -49.21875 C 28.09375 -49.21875 31.753906 -48.066406 34.234375 -45.765625 C 35.785156 -44.335938 36.820312 -42.613281 37.34375 -40.59375 C 37.875 -38.582031 38.140625 -35.9375 38.140625 -32.65625 L 38.140625 -6.796875 C 38.140625 -5.242188 38.351562 -4.125 38.78125 -3.4375 C 39.21875 -2.757812 39.96875 -2.421875 41.03125 -2.421875 C 41.769531 -2.421875 42.460938 -2.585938 43.109375 -2.921875 C 43.765625 -3.265625 44.46875 -3.75 45.21875 -4.375 L 46.234375 -2.796875 C 44.617188 -1.554688 43.238281 -0.671875 42.09375 -0.140625 C 40.945312 0.390625 39.503906 0.65625 37.765625 0.65625 C 34.796875 0.65625 32.71875 -0.0859375 31.53125 -1.578125 C 30.351562 -3.066406 29.765625 -5.082031 29.765625 -7.625 C 27.910156 -4.53125 25.769531 -2.375 23.34375 -1.15625 C 20.925781 0.0507812 18.203125 0.65625 15.171875 0.65625 Z M 19.25 -3.0625 C 23.34375 -3.0625 26.847656 -5.421875 29.765625 -10.140625 L 29.765625 -28.375 C 29.210938 -27.507812 28.4375 -26.796875 27.4375 -26.234375 C 26.445312 -25.671875 24.929688 -24.925781 22.890625 -24 C 20.523438 -23.007812 18.613281 -22.0625 17.15625 -21.15625 C 15.707031 -20.257812 14.453125 -19.035156 13.390625 -17.484375 C 12.335938 -15.941406 11.8125 -13.957031 11.8125 -11.53125 C 11.8125 -8.738281 12.492188 -6.628906 13.859375 -5.203125 C 15.222656 -3.773438 17.019531 -3.0625 19.25 -3.0625 Z M 19.25 -3.0625 "/></g></g></g><path fill="#485b90" d="M 485.511719 261.964844 L 383.871094 382.222656 L 282.230469 261.964844 L 327.566406 209.214844 L 440.175781 209.214844 Z M 485.511719 261.964844 " fill-opacity="1" fill-rule="nonzero"/><g clip-path="url(#75ed94bec1)"><path fill="#fdf1f7" d="M 440.671875 208.058594 L 327.070312 208.058594 L 280.746094 261.964844 L 383.871094 384 L 486.378906 262.710938 L 486.996094 261.964844 Z M 441.289062 212.273438 L 482.996094 260.808594 L 441.289062 260.808594 Z M 439.023438 210.332031 L 439.023438 259.359375 L 386.097656 210.332031 Z M 437.25 260.847656 L 330.492188 260.847656 L 383.871094 211.40625 Z M 328.71875 210.332031 L 381.644531 210.332031 L 328.71875 259.359375 Z M 326.449219 212.273438 L 326.449219 260.808594 L 284.746094 260.808594 Z M 284.707031 263.125 L 326.863281 263.125 L 379.210938 374.90625 Z M 329.378906 263.125 L 438.363281 263.125 L 383.871094 379.535156 Z M 388.574219 374.90625 L 440.917969 263.125 L 483.078125 263.125 Z M 388.574219 374.90625 " fill-opacity="1" fill-rule="nonzero"/></g></svg>